<svg id="Layer_1" data-name="Layer 1" xmlns="http://www.w3.org/2000/svg" viewBox="0 0 200 100"><defs><style>.cls-1{fill:#585858;}.cls-2{fill:#fff;}</style></defs><rect class="cls-1" width="200" height="100"/><path class="cls-2" d="M105.56,24.69,95.75,58.23,85.56,24.69H74.81l-11,33.54-9-33.54H31.16V60.1c0,1.56-.23,4.13-1.4,5.21a3.87,3.87,0,0,1-2.33.86,4.75,4.75,0,0,1-2.57-.93A7.2,7.2,0,0,1,23,61.11l-8.8,9a18.45,18.45,0,0,0,5.14,5.29,13.69,13.69,0,0,0,8.17,2.33c5.22,0,9.26-1.47,12.69-4.9,4-4,4.43-7.62,4.43-12.45V37.74L56.22,76.6H69.91l10-30,9.42,30h13.78l16.57-51.91Z" transform="translate(0 0)"/><polygon class="cls-2" points="111.02 76.6 125.1 76.6 141.67 24.69 127.59 24.69 111.02 76.6"/><polygon class="cls-2" points="133.08 76.6 147.16 76.6 163.74 24.69 149.65 24.69 133.08 76.6"/><polygon class="cls-2" points="155.15 76.6 169.23 76.6 185.81 24.69 171.72 24.69 155.15 76.6"/></svg>